<svg xmlns="http://www.w3.org/2000/svg" width="362.1" height="147.1"><path d="M159 146q-11-3-16-15-3-4-3-16-1-17 5-11 6 4 6-3 0-6-7-14l-4-8q1-6-6-8-8-2-1-5c5-2 27-4 28-3l1 29 1 32q4 14 20 9l9-4 2-3v-26c-1-30-1-30-7-30q-6 0-4-4c1-2 30-5 31-4l1 36c0 34 0 35 2 37l6 3 3 3q1 2-7 3h-23l-1-4-1-4-7 4q-13 10-28 6m70-4q-1-3 5-4c7-1 7-1 7-34l-2-30-6-2q-4-1-4-3c-1-2 0-3 17-6 13-2 14-2 15 0l1 36c0 38 0 37 7 39q9 3 15-5c6-5 22-28 22-29 0-2-17-28-20-32l-7-4q-7-2-4-5 0-2 15-2c17 1 15-1 24 15l7 12c2 2 3 0 11-14l8-13c3-2 16-1 18 1v3l-3 1-6 4c-6 5-21 25-21 27l12 19c10 16 12 18 17 21q9 5 2 6l-26 1-4-4q-14-27-17-27l-10 15q-7 14-10 15l-32 1c-26 0-30 0-31-2m12-95q-9-8-4-18c10-15 33-3 25 14-3 7-15 10-21 4" style="opacity:1;fill:#040407;fill-opacity:.996078"/><path d="M71 0 0 56l9 1h7l1-1 20-15 34-26 10 7 12 13q-16-5-32 1-20 7-31 22-8 14-9 30 0 18 8 31 14 20 40 26c8 1 21-1 30-4l5-3v7h15v-23c1-21 0-24 2-26q7-12 24 3l3 3q1-3-3-10-5-6-13-11l-15-2h-13v2q-3 3-5 2-4-1-4-3l-5-1h-5v17h4l7-1q1-2 3-2 4 0 6 4v24l-3 2a43 43 0 0 1-59-8q-9-12-9-27 0-10 5-18 9-17 28-23c6-1 18-1 24 1a53 53 0 0 1 19 10l1-21V16h-11l-1 3v4L86 11Q73 0 71 0m45 37v15l4 4 4 4h17q1-2-5-6z" style="opacity:1;fill:#fff;fill-opacity:.996078;stroke-width:2.52427"/></svg>