<?xml version="1.0" encoding="UTF-8" standalone="no"?>
<!-- Created with Inkscape (http://www.inkscape.org/) -->

<svg
   width="39.23568mm"
   height="38.370171mm"
   viewBox="0 0 39.23568 38.370171"
   version="1.1"
   id="svg1"
   sodipodi:docname="Simplificado.svg"
   inkscape:version="1.3 (0e150ed6c4, 2023-07-21)"
   xmlns:inkscape="http://www.inkscape.org/namespaces/inkscape"
   xmlns:sodipodi="http://sodipodi.sourceforge.net/DTD/sodipodi-0.dtd"
   xmlns="http://www.w3.org/2000/svg"
   xmlns:svg="http://www.w3.org/2000/svg">
  <sodipodi:namedview
     id="namedview1"
     pagecolor="#ffffff"
     bordercolor="#000000"
     borderopacity="0.25"
     inkscape:showpageshadow="2"
     inkscape:pageopacity="0.0"
     inkscape:pagecheckerboard="0"
     inkscape:deskcolor="#d1d1d1"
     inkscape:document-units="mm"
     inkscape:zoom="1.2825338"
     inkscape:cx="-17.933251"
     inkscape:cy="-26.120169"
     inkscape:window-width="1920"
     inkscape:window-height="1009"
     inkscape:window-x="-8"
     inkscape:window-y="-8"
     inkscape:window-maximized="1"
     inkscape:current-layer="layer1" />
  <defs
     id="defs1" />
  <g
     inkscape:label="Capa 1"
     inkscape:groupmode="layer"
     id="layer1"
     transform="translate(-90.487499,-125.14824)">
    <path
       id="path2-1"
       style="fill:#07073e;fill-opacity:0.996078;stroke-width:0.66788"
       d="m 109.31545,125.1553 c -0.11772,0.083 -3.20572,2.48816 -6.86211,5.34487 -3.656424,2.85671 -7.861523,6.13631 -9.345063,7.28814 -1.483523,1.15182 -2.66251,2.1557 -2.619645,2.23086 0.0429,0.0752 1.043713,0.16022 2.223699,0.18874 0.796525,0.0193 1.300765,0.0429 1.760156,0.0649 0.04923,0.002 0.158697,-0.0724 0.209087,-0.10141 0.09778,-0.0563 0.211098,-0.11571 0.304176,-0.17971 0.788432,-0.54211 1.865738,-1.20775 5.30048,-3.90497 3.46488,-2.7209 6.97669,-5.44577 8.99009,-6.97497 0.15501,-0.11773 0.9296,0.44527 2.65974,1.9326 1.34268,1.15424 2.77219,2.37446 3.17665,2.71157 0.40447,0.33713 0.70947,0.63869 0.67756,0.66984 -0.0319,0.0311 -0.36818,-0.0246 -0.74726,-0.12375 -2.95707,-0.77297 -5.59691,-0.70032 -8.51585,0.23415 -3.31301,1.06066 -6.21835,3.22696 -8.101642,6.0411 -1.692598,2.52922 -2.324475,4.62177 -2.39772,7.94108 -0.07261,3.28984 0.508722,5.48741 2.1366,8.07736 2.222232,3.53559 5.929542,5.92835 10.505482,6.78073 2.12546,0.39592 5.65258,-0.0654 7.80398,-1.02097 0.75063,-0.33339 1.52021,-0.81291 1.54943,-0.81221 0.0292,8e-4 0.0107,0.59333 -0.001,1.06048 l -0.0114,0.81956 1.78103,0.0394 2.00943,0.006 0.0958,-6.04313 c 0.1829,-5.61887 0.10888,-6.28227 0.41193,-6.84695 1.14546,-2.13432 3.90243,-1.82001 6.34763,0.72371 0.49517,0.51515 0.9508,0.88755 1.01224,0.82757 0.22624,-0.22087 -0.28419,-1.5483 -0.99679,-2.59243 -0.8014,-1.17431 -1.99607,-2.2094 -3.29766,-2.8568 -0.74137,-0.36877 -1.19159,-0.43214 -3.94915,-0.55796 l -3.40907,-0.0442 -0.22567,0.4832 c -0.1445,0.22643 -0.35395,0.41877 -0.56259,0.50174 -0.27689,0.11009 -0.55237,0.0692 -0.67279,0.0664 -0.17432,-0.004 -0.41354,-0.0734 -0.60314,-0.21661 -0.23386,-0.17662 -0.41599,-0.44649 -0.5937,-0.61562 -0.0918,-0.0874 -0.38618,-0.18335 -1.11945,-0.20108 l -1.30878,-0.0316 -0.054,2.23481 -0.054,2.23532 1.21361,0.0293 c 1.05141,0.0254 1.34117,0.0712 1.66103,-0.40718 0.19102,-0.28569 0.64139,-0.49518 0.83794,-0.53805 0.26264,-0.0573 0.58471,-0.001 0.81347,0.14209 0.37667,0.23608 0.60957,0.67785 0.71425,1.01034 0.0793,0.25194 0.12365,1.81082 0.0836,3.4692 l -0.0729,3.01546 -0.6681,0.54053 c -2.67597,2.16659 -7.13532,2.7788 -10.64401,1.46085 -1.81494,-0.68173 -4.01638,-2.26531 -5.00105,-3.59748 -1.64212,-2.22156 -2.398233,-4.54784 -2.334564,-7.18174 0.04497,-1.86044 0.392221,-3.2313 1.252264,-4.9463 1.4201,-2.83174 4.33221,-5.10768 7.56701,-5.9138 1.5536,-0.38714 4.59808,-0.32189 6.10872,0.13092 1.41587,0.42441 3.09375,1.27058 4.16921,2.10302 0.45609,0.35304 0.86847,0.64307 0.91623,0.64422 0.0477,0.001 0.14717,-2.49564 0.22096,-5.5483 l 0.13417,-5.55041 -1.52807,0.0149 -1.52859,0.0148 -0.0733,0.84527 -0.0738,0.84474 -3.53036,-3.05653 c -2.38085,-2.06132 -3.59999,-3.00707 -3.74435,-2.90526 z m 11.81079,9.83474 c -0.0386,-8e-4 -0.0885,0.86374 -0.11079,1.92109 l -0.0402,1.92227 1.14726,1.04271 1.1478,1.04221 2.21407,0.0676 c 1.21797,0.0372 2.25842,-7.9e-4 2.31193,-0.0849 0.0535,-0.084 -0.53614,-0.6933 -1.31031,-1.35377 -0.77416,-0.6605 -2.28087,-1.95546 -3.34842,-2.87791 -1.06754,-0.92245 -1.9727,-1.67846 -2.01135,-1.6794 z"
       sodipodi:nodetypes="ssscsssssssssccssssssccccccsssscccssssscccssssssccscsssssssccccccsscccccsssssc" />
  </g>
</svg>
